<?xml version="1.0" encoding="UTF-8"?>
<svg width="24" height="24" viewBox="0 0 24 24" fill="none" xmlns="http://www.w3.org/2000/svg">
  <!-- Modern chat bubble with AI elements -->
  <path d="M20 2H4C2.9 2 2 2.9 2 4V22L6 18H20C21.1 18 22 17.1 22 16V4C22 2.9 21.1 2 20 2Z" fill="white"/>
  
  <!-- AI Circuit Lines -->
  <path d="M7 8H17M7 12H13M7 16H15" stroke="#FF6B00" stroke-width="2" stroke-linecap="round"/>
  
  <!-- AI Brain Pattern -->
  <path d="M15 8C15 8 16 9 17 8C18 7 19 8 19 8" stroke="#FF6B00" stroke-width="2" stroke-linecap="round"/>
  <path d="M15 12C15 12 16 13 17 12C18 11 19 12 19 12" stroke="#FF6B00" stroke-width="2" stroke-linecap="round"/>
  <path d="M15 16C15 16 16 17 17 16C18 15 19 16 19 16" stroke="#FF6B00" stroke-width="2" stroke-linecap="round"/>
  
  <!-- Neural Network Dots -->
  <circle cx="17" cy="8" r="1" fill="#FF6B00"/>
  <circle cx="19" cy="8" r="1" fill="#FF6B00"/>
  <circle cx="15" cy="8" r="1" fill="#FF6B00"/>
  
  <circle cx="17" cy="12" r="1" fill="#FF6B00"/>
  <circle cx="19" cy="12" r="1" fill="#FF6B00"/>
  <circle cx="15" cy="12" r="1" fill="#FF6B00"/>
  
  <circle cx="17" cy="16" r="1" fill="#FF6B00"/>
  <circle cx="19" cy="16" r="1" fill="#FF6B00"/>
  <circle cx="15" cy="16" r="1" fill="#FF6B00"/>
</svg> 